<?xml version="1.0" encoding="UTF-8"?>
<!DOCTYPE svg PUBLIC "-//W3C//DTD SVG 1.1//EN" "http://www.w3.org/Graphics/SVG/1.1/DTD/svg11.dtd">
<!-- Creator: CorelDRAW SE -->
<svg xmlns="http://www.w3.org/2000/svg" xml:space="preserve" width="79.4175mm" height="245.884mm" version="1.1" style="shape-rendering:geometricPrecision; text-rendering:geometricPrecision; image-rendering:optimizeQuality; fill-rule:evenodd; clip-rule:evenodd"
viewBox="0 0 811.479 2512.414"
 xmlns:xlink="http://www.w3.org/1999/xlink">
 <defs>
  <style type="text/css">
   <![CDATA[
    .fil0 {fill:black}
   ]]>
  </style>
 </defs>
 <g id="Warstwa_x0020_1">
  <metadata id="CorelCorpID_0Corel-Layer"/>
  <path class="fil0" d="M410.065 0c-1.449,0.031 -2.892,0.096 -4.326,0.19 -1.435,-0.094 -2.876,-0.159 -4.325,-0.19l0 0.573c-39.574,4.374 -72.792,32.627 -85.169,72.93l-291.152 83.239c-14.912,4.239 -25.12,17.831 -25.092,33.282l0.045 355.423c0.001,12.44 6.64,23.922 17.439,30.067l293.554 167.649 0.033 285.978c-26.588,22.632 -44.407,55.642 -44.375,91.465l0.025 123.264 139.018 -0.028 139.019 0.028 0.025 -123.264c0.032,-35.824 -17.787,-68.834 -44.375,-91.465l0.033 -285.978 293.554 -167.649c10.799,-6.145 17.438,-17.627 17.439,-30.067l0.045 -355.423c0.028,-15.45 -10.18,-29.042 -25.092,-33.282l-291.152 -83.239c-12.377,-40.303 -45.595,-68.556 -85.169,-72.93l0 -0.573zm0 999.396l0 -0.002 -4.326 0.001 -4.325 -0.001 0 0.002 -13.509 0.003c-2.547,0 -4.996,0.638 -7.518,0.809l-0.08 -276.966c0.001,-0.05 0.026,-0.123 0.026,-0.172l-0.148 -620.17c1.112,-16.925 11.088,-29.968 25.555,-32.985 14.466,3.017 24.444,16.06 25.556,32.985l-0.148 620.17c0,0.049 0.025,0.122 0.026,0.172l-0.08 276.966c-2.523,-0.172 -4.971,-0.809 -7.518,-0.809l-13.509 -0.003zm-4.326 767.798l138.89 0.028 0.02 -98.679 -134.584 -0.028 0 -0.002 -4.326 0.001 -4.325 -0.001 0 0.002 -134.584 0.028 0.02 98.679 138.889 -0.028zm0 -345.627l138.935 0.028 0.022 -108.425 -134.631 -0.028 0 -0.002 -4.326 0.001 -4.325 -0.001 0 0.002 -134.631 0.028 0.022 108.425 138.934 -0.028zm138.86 503.201c-0.007,32.273 -12.649,62.684 -35.622,85.646 -20.498,20.491 -47.093,32.19 -75.499,34.534l-0.062 432.947c-0.004,15.198 -9.754,28.078 -23.351,32.743l0 1.775c-1.47,-0.109 -2.914,-0.313 -4.326,-0.599 -1.412,0.286 -2.855,0.489 -4.325,0.599l0 -1.775c-13.597,-4.665 -23.347,-17.545 -23.351,-32.743l-0.062 -432.947c-28.406,-2.344 -55.001,-14.043 -75.499,-34.534 -22.973,-22.963 -35.614,-53.373 -35.622,-85.646l-0.041 -88.323 134.575 -0.027 0 -0.002 4.325 0.001 4.326 -0.001 0 0.002 134.575 0.027 -0.041 88.323zm-138.86 -325.502l138.924 0.028 0.021 -108.475 -134.62 -0.027 0 -0.002 -4.326 0.001 -4.325 -0.001 0 0.002 -134.62 0.027 0.021 108.475 138.923 -0.028z"/>
 </g>
</svg>
